<svg width="239" height="87" viewBox="0 0 239 87" fill="none" xmlns="http://www.w3.org/2000/svg">
<g filter="url(#filter0_d)">
<path d="M52.7438 28.0638L35.674 27.9405L35.3395 74.2284L21.629 74.1293L21.9634 27.8414L5.20601 27.7204L5.28249 17.1347L52.8203 17.4782L52.7438 28.0638ZM105.496 47.4689C105.456 53.0156 104.391 57.9169 102.303 62.1728C100.215 66.4286 97.2619 69.7016 93.4432 71.9918C89.6507 74.2561 85.3326 75.3708 80.489 75.3358C75.6453 75.3008 71.3566 74.163 67.6227 71.9225C63.889 69.6558 60.9824 66.4447 58.903 62.2889C56.8496 58.1333 55.7902 53.373 55.7248 48.0078L55.748 44.8047C55.7882 39.2319 56.8393 34.3306 58.9012 30.1005C60.9892 25.8447 63.9427 22.5717 67.7614 20.2815C71.6062 17.9915 75.9634 16.8641 80.833 16.8993C85.6506 16.9341 89.9391 18.1109 93.6985 20.4298C97.4579 22.7487 100.364 26.038 102.416 30.2977C104.495 34.5316 105.528 39.383 105.515 44.8518L105.496 47.4689ZM91.5679 44.9854C91.6087 39.3345 90.6892 35.0439 88.8093 32.1136C86.9556 29.1574 84.271 27.6666 80.7554 27.6412C73.8806 27.5915 70.2106 32.7214 69.7455 43.0308L69.6763 47.2101C69.636 52.7829 70.5295 57.0733 72.3568 60.0814C74.1841 63.0894 76.9206 64.6066 80.5663 64.633C84.0298 64.658 86.7096 63.206 88.6058 60.2769C90.502 57.3478 91.4831 53.123 91.549 47.6025L91.5679 44.9854ZM132.29 74.9288L132.701 18.0553L151.021 18.1876C156.047 18.224 160.557 19.4024 164.55 21.723C168.544 24.0175 171.646 27.2562 173.855 31.4389C176.091 35.5958 177.203 40.2524 177.192 45.4087L177.173 48.0258C177.136 53.234 175.995 57.9004 173.752 62.0249C171.534 66.1236 168.412 69.3302 164.385 71.645C160.384 73.9338 155.923 75.0735 151.001 75.064L132.29 74.9288ZM146.335 28.74L146.077 64.4813L150.842 64.5157C154.775 64.5441 157.805 63.1727 159.935 60.4016C162.065 57.6044 163.149 53.4455 163.189 47.9248L163.207 45.4639C163.247 39.9692 162.222 35.8211 160.133 33.0195C158.044 30.2179 154.981 28.8025 150.944 28.7733L146.335 28.74ZM232.367 48.3855C232.327 53.9322 231.263 58.8335 229.175 63.0894C227.087 67.3452 224.134 70.6183 220.315 72.9084C216.522 75.1728 212.204 76.2874 207.361 76.2524C202.517 76.2174 198.228 75.0797 194.494 72.8391C190.761 70.5725 187.854 67.3613 185.775 63.2055C183.721 59.05 182.662 54.2896 182.597 48.9244L182.62 45.7213C182.66 40.1486 183.711 35.2472 185.773 31.0172C187.861 26.7613 190.814 23.4883 194.633 21.1981C198.478 18.9081 202.835 17.7807 207.705 17.8159C212.522 17.8507 216.811 19.0276 220.57 21.3464C224.33 23.6653 227.236 26.9546 229.288 31.2144C231.367 35.4483 232.4 40.2996 232.386 45.7684L232.367 48.3855ZM218.44 45.902C218.48 40.2511 217.561 35.9605 215.681 33.0302C213.827 30.074 211.143 28.5832 207.627 28.5578C200.752 28.5081 197.082 33.638 196.617 43.9474L196.548 48.1267C196.508 53.6995 197.401 57.9899 199.228 60.998C201.056 64.0061 203.792 65.5233 207.438 65.5496C210.901 65.5746 213.581 64.1226 215.477 61.1935C217.374 58.2644 218.355 54.0396 218.421 48.5191L218.44 45.902Z" fill="#710DD4"/>
<path d="M52.7438 28.0638L52.7366 29.0638L53.7366 29.071L53.7438 28.071L52.7438 28.0638ZM35.674 27.9405L35.6812 26.9405L34.6812 26.9333L34.674 27.9333L35.674 27.9405ZM35.3395 74.2284L35.3323 75.2283L36.3323 75.2356L36.3395 74.2356L35.3395 74.2284ZM21.629 74.1293L20.629 74.1221L20.6218 75.122L21.6217 75.1293L21.629 74.1293ZM21.9634 27.8414L22.9634 27.8487L22.9706 26.8487L21.9706 26.8415L21.9634 27.8414ZM5.20601 27.7204L4.20604 27.7131L4.19881 28.7131L5.19879 28.7203L5.20601 27.7204ZM5.28249 17.1347L5.28972 16.1347L4.28974 16.1275L4.28252 17.1275L5.28249 17.1347ZM52.8203 17.4782L53.8203 17.4854L53.8275 16.4854L52.8275 16.4782L52.8203 17.4782ZM52.7511 27.0639L35.6812 26.9405L35.6667 28.9405L52.7366 29.0638L52.7511 27.0639ZM34.674 27.9333L34.3396 74.2211L36.3395 74.2356L36.6739 27.9477L34.674 27.9333ZM35.3468 73.2284L21.6362 73.1293L21.6217 75.1293L35.3323 75.2283L35.3468 73.2284ZM22.6289 74.1365L22.9634 27.8487L20.9634 27.8342L20.629 74.1221L22.6289 74.1365ZM21.9706 26.8415L5.21324 26.7204L5.19879 28.7203L21.9562 28.8414L21.9706 26.8415ZM6.20599 27.7276L6.28247 17.1419L4.28252 17.1275L4.20604 27.7131L6.20599 27.7276ZM5.27527 18.1347L52.8131 18.4781L52.8275 16.4782L5.28972 16.1347L5.27527 18.1347ZM51.8203 17.4709L51.7439 28.0566L53.7438 28.071L53.8203 17.4854L51.8203 17.4709ZM102.303 62.1728L101.406 61.7323L102.303 62.1728ZM93.4432 71.9918L93.9558 72.8504L93.9575 72.8494L93.4432 71.9918ZM67.6227 71.9225L67.1037 72.7773L67.1081 72.7799L67.6227 71.9225ZM58.903 62.2889L58.0064 62.7319L58.0087 62.7364L58.903 62.2889ZM55.7248 48.0078L54.7249 48.0005L54.7248 48.0102L54.7249 48.0199L55.7248 48.0078ZM58.9012 30.1005L58.0034 29.6601L58.0023 29.6624L58.9012 30.1005ZM67.7614 20.2815L67.2497 19.4223L67.2471 19.4239L67.7614 20.2815ZM93.6985 20.4298L93.1735 21.2809L93.6985 20.4298ZM102.416 30.2977L101.516 30.7319L101.519 30.7385L102.416 30.2977ZM105.515 44.8518L106.515 44.859L106.515 44.8542L105.515 44.8518ZM88.8093 32.1136L87.962 32.6448L87.9676 32.6535L88.8093 32.1136ZM69.7455 43.0308L68.7465 42.9857L68.7459 43L68.7457 43.0142L69.7455 43.0308ZM69.6763 47.2101L68.6764 47.1935L68.6763 47.2029L69.6763 47.2101ZM72.3568 60.0814L71.5021 60.6005L72.3568 60.0814ZM91.549 47.6025L92.5489 47.6144L92.549 47.6097L91.549 47.6025ZM104.496 47.4617C104.456 52.8836 103.417 57.6324 101.406 61.7323L103.201 62.6132C105.366 58.2014 106.455 53.1477 106.496 47.4761L104.496 47.4617ZM101.406 61.7323C99.3967 65.8268 96.5714 68.9497 92.9288 71.1342L93.9575 72.8494C97.9524 70.4536 101.034 67.0305 103.201 62.6132L101.406 61.7323ZM92.9305 71.1332C89.3101 73.2948 85.1751 74.3696 80.4962 74.3358L80.4817 76.3358C85.4901 76.372 89.9912 75.2175 93.9558 72.8504L92.9305 71.1332ZM80.4962 74.3358C75.8108 74.302 71.701 73.2035 68.1372 71.065L67.1081 72.7799C71.0121 75.1226 75.4799 76.2997 80.4817 76.3358L80.4962 74.3358ZM68.1416 71.0676C64.5793 68.9051 61.798 65.84 59.7973 61.8414L58.0087 62.7364C60.1667 67.0493 63.1986 70.4066 67.1037 72.7773L68.1416 71.0676ZM59.7995 61.8459C57.8221 57.844 56.7886 53.2347 56.7248 47.9956L54.7249 48.0199C54.7918 53.5112 55.8772 58.4227 58.0065 62.7319L59.7995 61.8459ZM56.7248 48.015L56.7479 44.8119L54.748 44.7975L54.7249 48.0005L56.7248 48.015ZM56.7479 44.8119C56.7873 39.3613 57.8146 34.6119 59.8001 30.5387L58.0023 29.6624C55.864 34.0492 54.7891 39.1026 54.748 44.7975L56.7479 44.8119ZM59.7989 30.541C61.8078 26.4465 64.6332 23.3236 68.2757 21.1391L67.2471 19.4239C63.2521 21.8197 60.1707 25.2428 58.0034 29.6601L59.7989 30.541ZM68.2731 21.1406C71.9473 18.9523 76.1221 17.8653 80.8258 17.8993L80.8403 15.8993C75.8047 15.8629 71.265 17.0307 67.2497 19.4223L68.2731 21.1406ZM80.8258 17.8993C85.4776 17.9329 89.5838 19.0667 93.1735 21.2809L94.2235 19.5787C90.2944 17.1551 85.8236 15.9353 80.8403 15.8993L80.8258 17.8993ZM93.1735 21.2809C96.7588 23.4924 99.5398 26.6315 101.516 30.7318L103.317 29.8637C101.188 25.4446 98.157 22.005 94.2235 19.5787L93.1735 21.2809ZM101.519 30.7385C103.52 34.814 104.528 39.5097 104.515 44.8493L106.515 44.8542C106.528 39.2563 105.471 34.2492 103.314 29.857L101.519 30.7385ZM104.515 44.8445L104.496 47.4617L106.496 47.4761L106.515 44.859L104.515 44.8445ZM92.5679 44.9926C92.6093 39.2574 91.6822 34.7398 89.6509 31.5736L87.9676 32.6535C89.6962 35.348 90.6082 39.4116 90.5679 44.9782L92.5679 44.9926ZM89.6565 31.5823C87.6196 28.334 84.6167 26.6691 80.7627 26.6412L80.7482 28.6412C83.9252 28.6641 86.2916 29.9808 87.9621 32.6448L89.6565 31.5823ZM80.7627 26.6412C77.0343 26.6143 74.0769 28.0134 72.0335 30.8695C70.0353 33.6626 68.9828 37.7489 68.7465 42.9857L70.7445 43.0759C70.9734 38.0033 71.9884 34.37 73.6601 32.0332C75.2868 29.7595 77.6018 28.6184 80.7482 28.6412L80.7627 26.6412ZM68.7457 43.0142L68.6764 47.1935L70.6761 47.2267L70.7454 43.0474L68.7457 43.0142ZM68.6763 47.2029C68.6354 52.8625 69.5377 57.3666 71.5021 60.6005L73.2114 59.5622C71.5213 56.7799 70.6366 52.7032 70.6762 47.2173L68.6763 47.2029ZM71.5021 60.6005C73.5171 63.9177 76.5817 65.6042 80.5591 65.6329L80.5735 63.633C77.2594 63.6091 74.851 62.2612 73.2114 59.5622L71.5021 60.6005ZM80.5591 65.6329C84.3673 65.6605 87.365 64.0336 89.4452 60.8203L87.7663 59.7334C86.0541 62.3783 83.6922 63.6555 80.5735 63.633L80.5591 65.6329ZM89.4452 60.8203C91.4876 57.6655 92.4819 53.2233 92.5489 47.6144L90.5491 47.5906C90.4842 53.0227 89.5165 57.03 87.7663 59.7334L89.4452 60.8203ZM92.549 47.6097L92.5679 44.9926L90.5679 44.9782L90.549 47.5953L92.549 47.6097ZM132.29 74.9288L131.29 74.9216L131.283 75.9216L132.283 75.9288L132.29 74.9288ZM132.701 18.0553L132.708 17.0553L131.708 17.0481L131.701 18.0481L132.701 18.0553ZM164.55 21.723L164.048 22.5876L164.052 22.5901L164.55 21.723ZM173.855 31.4389L172.971 31.906L172.975 31.9126L173.855 31.4389ZM177.192 45.4087L178.192 45.4159L178.192 45.4109L177.192 45.4087ZM173.752 62.0249L172.873 61.5471L172.872 61.5491L173.752 62.0249ZM164.385 71.645L164.882 72.513L164.883 72.512L164.385 71.645ZM151.001 75.064L150.993 76.064L150.999 76.064L151.001 75.064ZM146.335 28.74L146.342 27.74L145.342 27.7328L145.335 28.7328L146.335 28.74ZM146.077 64.4813L145.077 64.474L145.07 65.474L146.07 65.4812L146.077 64.4813ZM159.935 60.4016L160.728 61.0109L160.731 61.0073L159.935 60.4016ZM160.133 33.0195L160.934 32.4217L160.133 33.0195ZM133.29 74.936L133.701 18.0625L131.701 18.0481L131.29 74.9216L133.29 74.936ZM132.694 19.0553L151.014 19.1876L151.028 17.1877L132.708 17.0553L132.694 19.0553ZM151.014 19.1876C155.881 19.2228 160.218 20.3621 164.048 22.5876L165.053 20.8583C160.895 18.4427 156.212 17.2251 151.028 17.1877L151.014 19.1876ZM164.052 22.5901C167.878 24.7878 170.848 27.8856 172.971 31.906L174.74 30.9718C172.444 26.6267 169.211 23.2472 165.049 20.8559L164.052 22.5901ZM172.975 31.9126C175.125 35.91 176.203 40.4005 176.192 45.4065L178.192 45.4109C178.204 40.1042 177.058 35.2816 174.736 30.9652L172.975 31.9126ZM176.192 45.4015L176.173 48.0186L178.173 48.033L178.192 45.4159L176.192 45.4015ZM176.173 48.0186C176.137 53.0806 175.03 57.5823 172.873 61.5471L174.63 62.5027C176.96 58.2184 178.134 53.3874 178.173 48.033L176.173 48.0186ZM172.872 61.5491C170.743 65.4851 167.752 68.5561 163.887 70.778L164.883 72.512C169.072 70.1044 172.326 66.762 174.631 62.5007L172.872 61.5491ZM163.888 70.777C160.05 72.9731 155.762 74.0732 151.003 74.064L150.999 76.064C156.083 76.0738 160.718 74.8945 164.882 72.513L163.888 70.777ZM151.008 74.064L132.297 73.9288L132.283 75.9288L150.993 76.064L151.008 74.064ZM145.335 28.7328L145.077 64.474L147.077 64.4885L147.335 28.7472L145.335 28.7328ZM146.07 65.4812L150.835 65.5157L150.85 63.5157L146.084 63.4813L146.07 65.4812ZM150.835 65.5157C155.036 65.546 158.382 64.0639 160.728 61.0109L159.142 59.7923C157.229 62.2815 154.514 63.5422 150.85 63.5157L150.835 65.5157ZM160.731 61.0073C163.047 57.9647 164.149 53.5539 164.189 47.932L162.189 47.9175C162.15 53.337 161.082 57.2441 159.139 59.7958L160.731 61.0073ZM164.189 47.932L164.207 45.4711L162.207 45.4567L162.189 47.9175L164.189 47.932ZM164.207 45.4711C164.247 39.875 163.209 35.4727 160.934 32.4217L159.331 33.6173C161.234 36.1696 162.246 40.0635 162.207 45.4567L164.207 45.4711ZM160.934 32.4217C158.627 29.3279 155.246 27.8044 150.952 27.7733L150.937 29.7733C154.715 29.8006 157.46 31.1078 159.331 33.6173L160.934 32.4217ZM150.952 27.7733L146.342 27.74L146.328 29.74L150.937 29.7733L150.952 27.7733ZM229.175 63.0894L228.277 62.6489L229.175 63.0894ZM220.315 72.9084L220.827 73.7671L220.829 73.766L220.315 72.9084ZM194.494 72.8391L193.975 73.6939L193.98 73.6966L194.494 72.8391ZM185.775 63.2055L184.878 63.6485L184.88 63.653L185.775 63.2055ZM182.597 48.9244L181.597 48.9172L181.596 48.9269L181.597 48.9366L182.597 48.9244ZM185.773 31.0172L184.875 30.5767L184.874 30.579L185.773 31.0172ZM194.633 21.1981L194.121 20.339L194.119 20.3405L194.633 21.1981ZM220.57 21.3464L220.045 22.1976L220.57 21.3464ZM229.288 31.2144L228.387 31.6485L228.391 31.6551L229.288 31.2144ZM232.386 45.7684L233.386 45.7756L233.386 45.7708L232.386 45.7684ZM215.681 33.0302L214.834 33.5615L214.839 33.5701L215.681 33.0302ZM196.617 43.9474L195.618 43.9023L195.618 43.9166L195.617 43.9308L196.617 43.9474ZM196.548 48.1267L195.548 48.1101L195.548 48.1195L196.548 48.1267ZM199.228 60.998L198.374 61.5172L199.228 60.998ZM218.421 48.5191L219.421 48.5311L219.421 48.5263L218.421 48.5191ZM231.367 48.3783C231.328 53.8002 230.289 58.5491 228.277 62.6489L230.073 63.5299C232.237 59.118 233.326 54.0643 233.367 48.3927L231.367 48.3783ZM228.277 62.6489C226.268 66.7434 223.443 69.8663 219.801 72.0508L220.829 73.766C224.824 71.3702 227.906 67.9471 230.073 63.5299L228.277 62.6489ZM219.802 72.0498C216.182 74.2114 212.047 75.2863 207.368 75.2525L207.353 77.2524C212.362 77.2886 216.863 76.1341 220.827 73.767L219.802 72.0498ZM207.368 75.2525C202.682 75.2186 198.573 74.1201 195.009 71.9816L193.98 73.6966C197.884 76.0392 202.352 77.2163 207.353 77.2524L207.368 75.2525ZM195.013 71.9843C191.451 69.8217 188.67 66.7566 186.669 62.758L184.88 63.653C187.038 67.9659 190.07 71.3232 193.975 73.6939L195.013 71.9843ZM186.671 62.7625C184.694 58.7606 183.66 54.1514 183.596 48.9122L181.597 48.9366C181.664 54.4278 182.749 59.3393 184.878 63.6485L186.671 62.7625ZM183.596 48.9316L183.62 45.7286L181.62 45.7141L181.597 48.9172L183.596 48.9316ZM183.62 45.7286C183.659 40.2779 184.686 35.5285 186.672 31.4553L184.874 30.579C182.736 34.9658 181.661 40.0192 181.62 45.7141L183.62 45.7286ZM186.671 31.4577C188.68 27.3632 191.505 24.2402 195.147 22.0557L194.119 20.3405C190.124 22.7364 187.042 26.1595 184.875 30.5767L186.671 31.4577ZM195.145 22.0573C198.819 19.8689 202.994 18.7819 207.698 18.8159L207.712 16.8159C202.676 16.7795 198.137 17.9474 194.121 20.339L195.145 22.0573ZM207.698 18.8159C212.349 18.8495 216.456 19.9833 220.045 22.1976L221.095 20.4953C217.166 18.0718 212.695 16.8519 207.712 16.8159L207.698 18.8159ZM220.045 22.1976C223.63 24.409 226.411 27.5481 228.387 31.6485L230.189 30.7803C228.06 26.3612 225.029 22.9216 221.095 20.4953L220.045 22.1976ZM228.391 31.6551C230.392 35.7307 231.399 40.4263 231.386 45.7659L233.386 45.7708C233.4 40.1729 232.342 35.1658 230.186 30.7736L228.391 31.6551ZM231.386 45.7612L231.367 48.3783L233.367 48.3927L233.386 45.7756L231.386 45.7612ZM219.44 45.9092C219.481 40.174 218.554 35.6564 216.523 32.4902L214.839 33.5701C216.568 36.2646 217.48 40.3282 217.44 45.8948L219.44 45.9092ZM216.528 32.4989C214.491 29.2506 211.488 27.5857 207.634 27.5578L207.62 29.5578C210.797 29.5807 213.163 30.8974 214.834 33.5614L216.528 32.4989ZM207.634 27.5578C203.906 27.5309 200.949 28.93 198.905 31.7861C196.907 34.5792 195.854 38.6655 195.618 43.9023L197.616 43.9925C197.845 38.9199 198.86 35.2866 200.532 32.9498C202.158 30.6761 204.473 29.5351 207.62 29.5578L207.634 27.5578ZM195.617 43.9308L195.548 48.1101L197.548 48.1433L197.617 43.964L195.617 43.9308ZM195.548 48.1195C195.507 53.7792 196.409 58.2833 198.374 61.5172L200.083 60.4788C198.393 57.6965 197.508 53.6198 197.548 48.1339L195.548 48.1195ZM198.374 61.5172C200.389 64.8343 203.453 66.5208 207.431 66.5496L207.445 64.5496C204.131 64.5257 201.723 63.1778 200.083 60.4788L198.374 61.5172ZM207.431 66.5496C211.239 66.5771 214.237 64.9503 216.317 61.7369L214.638 60.6501C212.926 63.2949 210.564 64.5722 207.445 64.5496L207.431 66.5496ZM216.317 61.7369C218.359 58.5822 219.354 54.1399 219.421 48.5311L217.421 48.5072C217.356 53.9393 216.388 57.9467 214.638 60.6501L216.317 61.7369ZM219.421 48.5263L219.44 45.9092L217.44 45.8948L217.421 48.5119L219.421 48.5263Z" fill="#1D1D1D"/>
</g>
<g filter="url(#filter1_d)">
<mask id="path-3-inside-1" fill="white">
<path fill-rule="evenodd" clip-rule="evenodd" d="M108.886 77.2021C108.744 77.1229 108.609 77.025 108.486 76.9082L77.6266 47.7567C76.8236 46.9982 76.7876 45.7323 77.5461 44.9294L85.634 36.3678C86.3925 35.5649 87.6583 35.5289 88.4613 36.2874L110.274 56.8932L152.091 12.6266C152.85 11.8236 154.116 11.7876 154.919 12.5461L163.48 20.634C164.283 21.3925 164.319 22.6583 163.561 23.4613L112.324 77.6988C111.565 78.5018 110.3 78.5378 109.497 77.7793L108.886 77.2021Z"/>
</mask>
<path fill-rule="evenodd" clip-rule="evenodd" d="M108.886 77.2021C108.744 77.1229 108.609 77.025 108.486 76.9082L77.6266 47.7567C76.8236 46.9982 76.7876 45.7323 77.5461 44.9294L85.634 36.3678C86.3925 35.5649 87.6583 35.5289 88.4613 36.2874L110.274 56.8932L152.091 12.6266C152.85 11.8236 154.116 11.7876 154.919 12.5461L163.48 20.634C164.283 21.3925 164.319 22.6583 163.561 23.4613L112.324 77.6988C111.565 78.5018 110.3 78.5378 109.497 77.7793L108.886 77.2021Z" fill="#59D36D"/>
<path d="M108.886 77.2021L109.572 76.4752L109.482 76.3896L109.373 76.3288L108.886 77.2021ZM108.486 76.9082L109.172 76.1813L109.172 76.1813L108.486 76.9082ZM77.6266 47.7567L78.3133 47.0297L78.3133 47.0297L77.6266 47.7567ZM77.5461 44.9294L76.8192 44.2427L76.8192 44.2427L77.5461 44.9294ZM85.634 36.3678L86.3609 37.0546L86.3609 37.0546L85.634 36.3678ZM88.4613 36.2874L89.148 35.5605L89.148 35.5605L88.4613 36.2874ZM110.274 56.8932L109.587 57.6201L110.314 58.3068L111.001 57.5799L110.274 56.8932ZM152.091 12.6266L151.364 11.9399L151.364 11.9399L152.091 12.6266ZM154.919 12.5461L154.232 13.2731L154.232 13.2731L154.919 12.5461ZM163.48 20.634L162.793 21.3609L162.793 21.3609L163.48 20.634ZM163.561 23.4613L162.834 22.7746L162.834 22.7746L163.561 23.4613ZM112.324 77.6988L113.051 78.3855L113.051 78.3855L112.324 77.6988ZM109.497 77.7793L108.81 78.5062L108.81 78.5062L109.497 77.7793ZM109.373 76.3288C109.303 76.2896 109.235 76.2407 109.172 76.1813L107.799 77.6351C107.983 77.8093 108.185 77.9563 108.399 78.0755L109.373 76.3288ZM109.172 76.1813L78.3133 47.0297L76.9399 48.4836L107.799 77.6351L109.172 76.1813ZM78.3133 47.0297C77.9118 46.6505 77.8938 46.0176 78.2731 45.6161L76.8192 44.2427C75.6814 45.4471 75.7355 47.3458 76.9399 48.4836L78.3133 47.0297ZM78.2731 45.6161L86.3609 37.0546L84.907 35.6811L76.8192 44.2427L78.2731 45.6161ZM86.3609 37.0546C86.7402 36.6531 87.3731 36.6351 87.7746 37.0143L89.148 35.5605C87.9436 34.4227 86.0448 34.4767 84.907 35.6811L86.3609 37.0546ZM87.7746 37.0143L109.587 57.6201L110.961 56.1663L89.148 35.5605L87.7746 37.0143ZM111.001 57.5799L152.818 13.3133L151.364 11.9399L109.547 56.2065L111.001 57.5799ZM152.818 13.3133C153.198 12.9118 153.83 12.8938 154.232 13.2731L155.605 11.8192C154.401 10.6814 152.502 10.7355 151.364 11.9399L152.818 13.3133ZM154.232 13.2731L162.793 21.3609L164.167 19.9071L155.605 11.8192L154.232 13.2731ZM162.793 21.3609C163.195 21.7402 163.213 22.3731 162.834 22.7746L164.288 24.148C165.425 22.9436 165.371 21.0448 164.167 19.9071L162.793 21.3609ZM162.834 22.7746L111.597 77.0121L113.051 78.3855L164.288 24.148L162.834 22.7746ZM111.597 77.0121C111.218 77.4136 110.585 77.4316 110.183 77.0523L108.81 78.5062C110.014 79.644 111.913 79.5899 113.051 78.3855L111.597 77.0121ZM110.183 77.0523L109.572 76.4752L108.199 77.9291L108.81 78.5062L110.183 77.0523Z" fill="#1D1D1D" mask="url(#path-3-inside-1)"/>
</g>
<defs>
<filter id="filter0_d" x="0.198814" y="15.8985" width="237.188" height="69.3548" filterUnits="userSpaceOnUse" color-interpolation-filters="sRGB">
<feFlood flood-opacity="0" result="BackgroundImageFix"/>
<feColorMatrix in="SourceAlpha" type="matrix" values="0 0 0 0 0 0 0 0 0 0 0 0 0 0 0 0 0 0 127 0"/>
<feOffset dy="4"/>
<feGaussianBlur stdDeviation="2"/>
<feColorMatrix type="matrix" values="0 0 0 0 0 0 0 0 0 0 0 0 0 0 0 0 0 0 0.25 0"/>
<feBlend mode="normal" in2="BackgroundImageFix" result="effect1_dropShadow"/>
<feBlend mode="normal" in="SourceGraphic" in2="effect1_dropShadow" result="shape"/>
</filter>
<filter id="filter1_d" x="73" y="12" width="95.1067" height="74.3254" filterUnits="userSpaceOnUse" color-interpolation-filters="sRGB">
<feFlood flood-opacity="0" result="BackgroundImageFix"/>
<feColorMatrix in="SourceAlpha" type="matrix" values="0 0 0 0 0 0 0 0 0 0 0 0 0 0 0 0 0 0 127 0"/>
<feOffset dy="4"/>
<feGaussianBlur stdDeviation="2"/>
<feColorMatrix type="matrix" values="0 0 0 0 0 0 0 0 0 0 0 0 0 0 0 0 0 0 0.25 0"/>
<feBlend mode="normal" in2="BackgroundImageFix" result="effect1_dropShadow"/>
<feBlend mode="normal" in="SourceGraphic" in2="effect1_dropShadow" result="shape"/>
</filter>
</defs>
</svg>
